<svg viewBox="0 0 205 40" fill="none" xmlns="http://www.w3.org/2000/svg">
<path fill-rule="evenodd" clip-rule="evenodd" d="M152 20C152 31.0457 143.046 40 132 40C120.954 40 112 31.0457 112 20C112 8.9543 120.954 0 132 0C143.046 0 152 8.9543 152 20ZM145 20C145 27.1797 139.18 33 132 33C124.82 33 119 27.1797 119 20C119 12.8203 124.82 7 132 7C139.18 7 145 12.8203 145 20Z" fill="#181C32"/>
<path d="M14.2399 31H6.68793V14.456H0.12793V8.60001H20.7999V14.456H14.2399V31Z" fill="#181C32"/>
<path d="M30.8254 22.36V25.304H42.0254V31H23.4014V8.60001H41.6094V14.296H30.8254V16.92H40.2974V22.36H30.8254Z" fill="#181C32"/>
<path d="M45.5727 31H63.2367V25.144H53.1247V8.60001H45.5727V31Z" fill="#181C32"/>
<path d="M73.3867 22.36V25.304H84.5867V31H65.9627V8.60001H84.1707V14.296H73.3867V16.92H82.8587V22.36H73.3867Z" fill="#181C32"/>
<path fill-rule="evenodd" clip-rule="evenodd" d="M98.9179 8.60001H88.1339V31H95.6859V25.496H98.9179C105.158 25.496 109.126 22.232 109.126 17.048C109.126 11.864 105.158 8.60001 98.9179 8.60001ZM98.4379 19.672H95.6859V14.424H98.4379C100.518 14.424 101.51 15.416 101.51 17.048C101.51 18.68 100.518 19.672 98.4379 19.672Z" fill="#181C32"/>
<path fill-rule="evenodd" clip-rule="evenodd" d="M175.232 31H183.296L178.592 24.088C181.28 22.712 182.816 20.28 182.816 17.048C182.816 11.864 178.848 8.60001 172.608 8.60001H161.824V31H169.376V25.368H171.424L175.232 31ZM175.2 17.048C175.2 18.68 174.208 19.672 172.128 19.672H169.376V14.424H172.128C174.208 14.424 175.2 15.416 175.2 17.048Z" fill="#181C32"/>
<path d="M190.859 31H198.411V14.456H204.971V8.60001H184.299V14.456H190.859V31Z" fill="#181C32"/>
<circle cx="139" cy="20" r="16.5" stroke="#3E97FF" stroke-width="7"/>
</svg>
