<svg xmlns="http://www.w3.org/2000/svg" xmlns:xlink="http://www.w3.org/1999/xlink"><symbol id="icon__agent" viewBox="0 0 80 80"><path fill-rule="evenodd" clip-rule="evenodd" d="M27.496 32.493c0-6.905 5.602-12.5 12.504-12.5 6.902 0 12.504 5.595 12.504 12.5v1.675c0 6.905-5.602 12.5-12.504 12.5-6.902 0-12.504-5.595-12.504-12.5v-1.675zM40 24.993a7.504 7.504 0 00-7.504 7.5v1.675c0 4.141 3.36 7.5 7.504 7.5a7.504 7.504 0 007.504-7.5v-1.675c0-4.141-3.36-7.5-7.504-7.5z" fill="#FF3D60"/><path fill-rule="evenodd" clip-rule="evenodd" d="M7.488 26.654c0-10.585 8.58-19.167 19.166-19.167h26.692c10.585 0 19.167 8.582 19.167 19.167v26.692c0 10.585-8.582 19.166-19.167 19.166H26.654c-10.585 0-19.166-8.58-19.166-19.166V26.654zm19.166-14.167c-7.824 0-14.166 6.343-14.166 14.167v26.692c0 3.149 1.027 6.057 2.764 8.41C18.515 55.2 25.06 50.838 33 50.838h14c7.531-.001 14.402 4.262 17.747 10.917a14.103 14.103 0 002.766-8.41V26.654c0-7.824-6.343-14.167-14.167-14.167H26.654zm34.228 52.857a2.512 2.512 0 01-.075-.17c-2.24-5.63-7.733-9.336-13.807-9.335H33c-6.441 0-11.582 3.752-13.803 9.335a2.537 2.537 0 01-.076.172 14.1 14.1 0 007.533 2.166h26.692a14.1 14.1 0 007.536-2.168z" fill="#FF3D60"/></symbol><symbol id="icon__arrow_down" viewBox="0 0 24 24"><path clip-rule="evenodd" d="M7.47 9.47a.75.75 0 011.06 0L12 12.94l3.47-3.47a.75.75 0 111.06 1.06l-4 4a.75.75 0 01-1.06 0l-4-4a.75.75 0 010-1.06z"/></symbol><symbol id="icon__arrow_down_table" viewBox="0 0 16 16"><path clip-rule="evenodd" d="M7 11.586V2h2v9.586l3.293-3.293 1.414 1.414L8 15.414 2.293 9.707l1.414-1.414L7 11.586z"/></symbol><symbol id="icon__calendar" viewBox="0 0 24 24"><path d="M6.75 3v.75h-3v16.5h16.5V3.75h-3V3h-1.5v.75h-7.5V3h-1.5zm-1.5 2.25h1.5V6h1.5v-.75h7.5V6h1.5v-.75h1.5v1.5H5.25v-1.5zm0 3h13.5v10.5H5.25V8.25zm4.5 1.5v1.5h1.5v-1.5h-1.5zm3 0v1.5h1.5v-1.5h-1.5zm3 0v1.5h1.5v-1.5h-1.5zm-9 3v1.5h1.5v-1.5h-1.5zm3 0v1.5h1.5v-1.5h-1.5zm3 0v1.5h1.5v-1.5h-1.5zm3 0v1.5h1.5v-1.5h-1.5zm-9 3v1.5h1.5v-1.5h-1.5zm3 0v1.5h1.5v-1.5h-1.5zm3 0v1.5h1.5v-1.5h-1.5z"/></symbol><symbol id="icon__client" viewBox="0 0 80 80"><path fill-rule="evenodd" clip-rule="evenodd" d="M27.008 32.005c0-6.905 5.602-12.5 12.505-12.5 6.902 0 12.504 5.595 12.504 12.5v1.676c0 6.905-5.602 12.5-12.505 12.5-6.902 0-12.504-5.595-12.504-12.5v-1.676zm12.505-7.5a7.504 7.504 0 00-7.505 7.5v1.676c0 4.14 3.361 7.5 7.505 7.5a7.503 7.503 0 007.504-7.5v-1.676c0-4.14-3.361-7.5-7.505-7.5z" fill="#3E97FF"/><path fill-rule="evenodd" clip-rule="evenodd" d="M7 39.513C7 21.556 21.556 7 39.513 7c17.956 0 32.512 14.556 32.512 32.513 0 17.956-14.556 32.512-32.513 32.512C21.557 72.025 7 57.469 7 39.512zM39.513 12C24.318 12 12 24.318 12 39.513a27.402 27.402 0 006.45 17.7c5.407-4.468 12.532-6.862 21.063-6.862 4.784 0 8.563.687 12.175 2.09 2.991 1.162 5.797 2.79 8.877 4.785a27.403 27.403 0 006.46-17.713C67.025 24.318 54.707 12 39.512 12zm17.4 48.825c-2.564-1.623-4.771-2.843-7.035-3.723-2.957-1.148-6.11-1.75-10.365-1.75-7.328 0-13.14 1.97-17.488 5.401a27.4 27.4 0 0017.488 6.272 27.4 27.4 0 0017.4-6.2z" fill="#3E97FF"/></symbol><symbol id="icon__cross" viewBox="0 0 32 32"><path d="M22.578 8L24 9.422 9.422 24 8 22.578 22.578 8z" fill="#181C32"/><path d="M24 22.578L22.578 24 8 9.422 9.422 8 24 22.578z" fill="#181C32"/></symbol><symbol id="icon__fb" viewBox="0 0 48 48"><path fill-rule="evenodd" clip-rule="evenodd" d="M24 0C10.745 0 0 10.745 0 24s10.745 24 24 24 24-10.745 24-24S37.255 0 24 0zm2.502 25.054v13.058h-5.403V25.054H18.4v-4.5h2.7v-2.701c0-3.671 1.523-5.854 5.853-5.854h3.605v4.5h-2.253c-1.686 0-1.797.629-1.797 1.802l-.006 2.253h4.082l-.478 4.5h-3.604z" fill="#3E97FF"/></symbol><symbol id="icon__info" viewBox="0 0 24 24"><path clip-rule="evenodd" d="M11 8.253a1 1 0 112-.005 1 1 0 01-2 .005z"/><path clip-rule="evenodd" d="M12 3.75A8.25 8.25 0 003.75 12 8.25 8.25 0 0012 20.25 8.25 8.25 0 0020.25 12 8.25 8.25 0 0012 3.75zM2.25 12A9.75 9.75 0 0112 2.25 9.75 9.75 0 0121.75 12 9.75 9.75 0 0112 21.75 9.75 9.75 0 012.25 12z"/><path clip-rule="evenodd" d="M12 11.25a.75.75 0 01.75.75v5a.75.75 0 01-1.5 0v-5a.75.75 0 01.75-.75z"/></symbol><symbol id="icon__no_compare" viewBox="0 0 64 64"><path fill-rule="evenodd" clip-rule="evenodd" d="M40.337 14.076a6.252 6.252 0 100 12.505 6.252 6.252 0 000-12.505zm-3.752 6.252a3.752 3.752 0 117.504 0 3.752 3.752 0 01-7.504 0z" fill="#5E6278"/><path d="M30.332 15.744H18.662a2.919 2.919 0 00-2.917 2.917v3.335a2.918 2.918 0 002.917 2.917h11.671a1.25 1.25 0 100-2.5h-11.67a.418.418 0 01-.418-.418v-3.334c0-.23.187-.417.418-.417h11.67a1.25 1.25 0 100-2.5z" fill="#5E6278"/><path fill-rule="evenodd" clip-rule="evenodd" d="M18.244 29.916h2.501c1.38.001 2.5 1.12 2.5 2.5v2.502c0 1.38-1.119 2.5-2.5 2.5h-2.5c-1.381 0-2.5-1.119-2.501-2.5v-2.501c0-1.38 1.12-2.5 2.5-2.5zm0 2.501v2.502h2.5l.002-.001v-2.502h-2.501l-.001.002z" fill="#5E6278"/><path d="M27.368 32.417a1.25 1.25 0 000 2.5h19.638a1.25 1.25 0 000-2.5H27.368zM27.368 43.255a1.25 1.25 0 000 2.5h19.638a1.25 1.25 0 000-2.5H27.368z" fill="#5E6278"/><path fill-rule="evenodd" clip-rule="evenodd" d="M18.244 40.998h2.501c1.38 0 2.5 1.12 2.5 2.5V46c0 1.38-1.119 2.5-2.5 2.5h-2.5c-1.381 0-2.5-1.12-2.501-2.5v-2.502c0-1.38 1.12-2.5 2.5-2.5zm0 2.5V46h2.502v-2.502h-2.502zM42.989 22.98a1.25 1.25 0 011.768 0l3.133 3.134a1.25 1.25 0 11-1.768 1.768l-3.133-3.133a1.25 1.25 0 010-1.768z" fill="#5E6278"/><path fill-rule="evenodd" clip-rule="evenodd" d="M32 .5C14.603.5.5 14.603.5 32S14.603 63.5 32 63.5 63.5 49.397 63.5 32 49.397.5 32 .5zM3.5 32C3.5 16.26 16.26 3.5 32 3.5c7.26 0 13.887 2.715 18.919 7.185L10.685 50.919A28.393 28.393 0 013.5 32zm9.292 21.055A28.397 28.397 0 0032 60.5c15.74 0 28.5-12.76 28.5-28.5 0-7.4-2.82-14.142-7.445-19.208L12.792 53.055z" fill="#FF3D60"/></symbol><symbol id="icon__no_form" viewBox="0 0 64 64"><path d="M32.417 36.634c0-.69.56-1.25 1.25-1.25h6.67a1.25 1.25 0 110 2.5h-6.67c-.69 0-1.25-.56-1.25-1.25zM29.118 35.709a1.25 1.25 0 10-1.672-1.859l-2.25 2.025-.696-.627a1.25 1.25 0 00-1.674 1.858l1.533 1.38a1.25 1.25 0 001.673 0l3.086-2.777zM32.417 28.297c0-.69.56-1.25 1.25-1.25h6.67a1.25 1.25 0 010 2.5h-6.67c-.69 0-1.25-.56-1.25-1.25zM29.117 27.372a1.25 1.25 0 00-1.673-1.858l-2.248 2.024-.696-.627a1.25 1.25 0 00-1.674 1.858l1.533 1.38a1.25 1.25 0 001.673 0l3.085-2.777z" fill="#5E6278"/><path fill-rule="evenodd" clip-rule="evenodd" d="M15.744 21.162a4.585 4.585 0 014.584-4.584h23.344a4.585 4.585 0 014.584 4.584v21.676a4.585 4.585 0 01-4.584 4.585H20.328a4.585 4.585 0 01-4.584-4.585V21.162zm4.584-2.084a2.085 2.085 0 00-2.084 2.084v21.676c0 1.151.933 2.085 2.084 2.085h23.344a2.085 2.085 0 002.084-2.085V21.162a2.085 2.085 0 00-2.084-2.084H20.328z" fill="#5E6278"/><path fill-rule="evenodd" clip-rule="evenodd" d="M32 .5C14.603.5.5 14.603.5 32S14.603 63.5 32 63.5 63.5 49.397 63.5 32 49.397.5 32 .5zM3.5 32C3.5 16.26 16.26 3.5 32 3.5c7.26 0 13.887 2.715 18.92 7.185L10.684 50.919A28.393 28.393 0 013.5 32zm9.292 21.055A28.397 28.397 0 0032 60.5c15.74 0 28.5-12.76 28.5-28.5 0-7.4-2.82-14.142-7.445-19.208L12.792 53.055z" fill="#FF3D60"/></symbol><symbol id="icon__no_mail" viewBox="0 0 64 64"><path d="M25.6 15.595a1.25 1.25 0 100 2.5h12.8a1.25 1.25 0 000-2.5H25.6zM22.4 20.395a1.25 1.25 0 000 2.5h19.2a1.25 1.25 0 000-2.5H22.4z" fill="#5E6278"/><path fill-rule="evenodd" clip-rule="evenodd" d="M35.2 29.95c-.69 0-1.25.56-1.25 1.25V36c0 .69.56 1.25 1.25 1.25h6.4c.69 0 1.25-.56 1.25-1.25v-4.8c0-.69-.56-1.25-1.25-1.25h-6.4zm1.25 4.8v-2.3h3.9v2.3h-3.9z" fill="#5E6278"/><path d="M21.15 36c0-.69.56-1.25 1.25-1.25h4.8a1.25 1.25 0 110 2.5h-4.8c-.69 0-1.25-.56-1.25-1.25zM22.4 39.55a1.25 1.25 0 000 2.5h8a1.25 1.25 0 100-2.5h-8z" fill="#5E6278"/><path fill-rule="evenodd" clip-rule="evenodd" d="M16.35 29.6a4.45 4.45 0 014.45-4.45h22.4a4.45 4.45 0 014.45 4.45v12.8a4.45 4.45 0 01-4.45 4.45H20.8a4.45 4.45 0 01-4.45-4.45V29.6zm4.45-1.95a1.95 1.95 0 00-1.95 1.95v12.8a1.95 1.95 0 001.95 1.95h22.4a1.95 1.95 0 001.95-1.95V29.6a1.95 1.95 0 00-1.95-1.95H20.8z" fill="#5E6278"/><path fill-rule="evenodd" clip-rule="evenodd" d="M32 .5C14.603.5.5 14.603.5 32S14.603 63.5 32 63.5 63.5 49.397 63.5 32 49.397.5 32 .5zM3.5 32C3.5 16.26 16.26 3.5 32 3.5c7.26 0 13.887 2.715 18.919 7.185L10.685 50.919A28.393 28.393 0 013.5 32zm9.292 21.055A28.397 28.397 0 0032 60.5c15.74 0 28.5-12.76 28.5-28.5 0-7.4-2.82-14.142-7.445-19.208L12.792 53.055z" fill="#FF3D60"/></symbol><symbol id="icon__no_phone" viewBox="0 0 64 64"><path fill-rule="evenodd" clip-rule="evenodd" d="M29.527 22.288c-1.062-1.533-3.335-2.13-4.886-.579l-.665.666-.002.002c-1.827 1.835-1.852 4.246-1.065 6.458.778 2.188 2.404 4.404 4.295 6.297l.041.04c1.882 1.873 4.08 3.48 6.252 4.253 2.212.787 4.624.762 6.46-1.066l.002-.002.665-.665c1.43-1.43 1.237-3.81-.435-4.974l-.11-.077c-.617-.43-1.276-.89-2-1.399a3.273 3.273 0 00-4.182.348l-.014.014a16.059 16.059 0 01-1.683-1.469l-.003-.002a15.902 15.902 0 01-1.468-1.682l.015-.015a3.27 3.27 0 00.344-4.184 15.59 15.59 0 00-.886-1.12c-.277-.327-.492-.58-.675-.844zM28.97 33.36a1.445 1.445 0 00-.038-.037c-1.727-1.737-3.063-3.63-3.667-5.326-.676-1.903-.183-3.192 1.145-4.52.15-.15.31-.19.478-.164.186.029.413.15.586.4.254.366.539.701.79.998l.032.038c.27.318.515.61.75.943l.001.001c.415.587-.156 1.113-.602 1.524-.08.073-.155.143-.22.209a1.25 1.25 0 00-.17 1.55c.647 1.021 1.466 2.015 2.376 2.925l.004.004c.91.908 1.902 1.727 2.924 2.374a1.25 1.25 0 001.55-.169l.751-.746a.772.772 0 01.982-.077c.728.513 1.391.975 2.008 1.404l.112.078a.754.754 0 01.095 1.156l-.663.663c-.907.902-2.17 1.082-3.858.481-1.71-.608-3.62-1.962-5.366-3.71z" fill="#5E6278"/><path fill-rule="evenodd" clip-rule="evenodd" d="M22 14.083a6.25 6.25 0 00-6.25 6.25v20a6.25 6.25 0 006.25 6.25h6.149l2.967 2.968a1.25 1.25 0 001.768 0l2.967-2.968H42a6.25 6.25 0 006.25-6.25v-20a6.25 6.25 0 00-6.25-6.25H22zm-3.75 6.25a3.75 3.75 0 013.75-3.75h20a3.75 3.75 0 013.75 3.75v20a3.75 3.75 0 01-3.75 3.75h-6.667c-.331 0-.65.132-.884.366L32 46.9l-2.45-2.45a1.25 1.25 0 00-.883-.366H22a3.75 3.75 0 01-3.75-3.75v-20z" fill="#5E6278"/><path fill-rule="evenodd" clip-rule="evenodd" d="M32 .5C14.603.5.5 14.603.5 32S14.603 63.5 32 63.5 63.5 49.397 63.5 32 49.397.5 32 .5zM3.5 32C3.5 16.26 16.26 3.5 32 3.5c7.26 0 13.887 2.715 18.919 7.185L10.685 50.919A28.393 28.393 0 013.5 32zm9.292 21.055A28.397 28.397 0 0032 60.5c15.74 0 28.5-12.76 28.5-28.5 0-7.4-2.82-14.142-7.445-19.208L12.792 53.055z" fill="#FF3D60"/></symbol><symbol id="icon__no_web" viewBox="0 0 64 64"><path d="M22.002 19.956a1.25 1.25 0 00-.74 0 1.258 1.258 0 10.74 0zM25.878 19.908a1.25 1.25 0 01.89.369 1.258 1.258 0 11-.89-.369zM30.11 19.908a1.249 1.249 0 01.89.369 1.258 1.258 0 11-.89-.369z" fill="#5E6278"/><path fill-rule="evenodd" clip-rule="evenodd" d="M15.75 20.333a4.582 4.582 0 014.583-4.583h23.334a4.582 4.582 0 014.583 4.583v8.334a1.25 1.25 0 01-2.5 0v-2.084h-27.5V42c0 1.151.932 2.083 2.083 2.083H27a1.25 1.25 0 010 2.5h-6.667A4.582 4.582 0 0115.75 42V20.333zm30 0v3.75h-27.5v-3.75c0-1.151.932-2.083 2.083-2.083h23.334c1.151 0 2.083.932 2.083 2.083z" fill="#5E6278"/><path d="M42.19 37.816a1.25 1.25 0 00-1.767-1.768L37.66 38.81l-1.304-1.304a1.25 1.25 0 10-1.768 1.768l2.188 2.188a1.25 1.25 0 001.768 0l3.647-3.647z" fill="#5E6278"/><path fill-rule="evenodd" clip-rule="evenodd" d="M47.14 38.39c0 1.965-.648 3.78-1.742 5.24l2.486 2.486a1.25 1.25 0 11-1.768 1.768l-2.486-2.486a8.75 8.75 0 113.51-7.008zm-8.75-6.25a6.25 6.25 0 10.001 12.501 6.25 6.25 0 00-.001-12.501z" fill="#5E6278"/><path fill-rule="evenodd" clip-rule="evenodd" d="M32 .5C14.603.5.5 14.603.5 32S14.603 63.5 32 63.5 63.5 49.397 63.5 32 49.397.5 32 .5zM3.5 32C3.5 16.26 16.26 3.5 32 3.5c7.26 0 13.887 2.715 18.92 7.185L10.684 50.919A28.393 28.393 0 013.5 32zm9.292 21.055A28.397 28.397 0 0032 60.5c15.74 0 28.5-12.76 28.5-28.5 0-7.4-2.82-14.142-7.445-19.208L12.792 53.055z" fill="#FF3D60"/></symbol><symbol id="icon__shevron_left" viewBox="0 0 32 32"><path d="M19.031 4.281l-11 11-.687.719.687.719 11 11 1.438-1.438L10.187 16 20.47 5.719 19.03 4.28z"/></symbol><symbol id="icon__shevron_right" viewBox="0 0 32 32"><path d="M12.969 27.719l11-11 .687-.719-.687-.719-11-11L11.53 5.72 21.812 16l-10.28 10.281 1.437 1.438z"/></symbol><symbol id="icon__tg" viewBox="0 0 48 48"><path fill-rule="evenodd" clip-rule="evenodd" d="M24 48c13.255 0 24-10.745 24-24S37.255 0 24 0 0 10.745 0 24s10.745 24 24 24zm-4.4-13c.584 0 .85-.26 1.173-.574l.027-.026 2.883-2.803 5.997 4.43c1.104.61 1.9.294 2.175-1.024l3.937-18.552c.403-1.617-.616-2.35-1.672-1.87l-23.118 8.914c-1.578.633-1.569 1.513-.287 1.906l5.932 1.851 13.735-8.665c.648-.393 1.243-.181.755.252L20.009 28.881l-.001.001L19.6 35z" fill="#3E97FF"/></symbol><symbol id="icon__vk" viewBox="0 0 48 48"><path fill-rule="evenodd" clip-rule="evenodd" d="M24 0C10.745 0 0 10.745 0 24s10.745 24 24 24 24-10.745 24-24S37.255 0 24 0zm1.954 31.576c-.236.25-.698.3-.698.3h-1.53s-3.376.2-6.35-2.84c-3.243-3.314-6.106-9.89-6.106-9.89s-.166-.432.013-.64c.202-.234.752-.25.752-.25l3.657-.023s.344.056.591.234c.204.148.318.422.318.422s.591 1.467 1.374 2.794c1.528 2.593 2.24 3.16 2.758 2.881.756-.404.53-3.663.53-3.663s.013-1.183-.381-1.71c-.306-.408-.882-.527-1.136-.56-.206-.028.132-.497.57-.707.659-.316 1.82-.335 3.194-.321 1.07.011 1.379.076 1.797.176.97.23.94.966.875 2.557-.02.475-.042 1.027-.042 1.665 0 .143-.005.296-.009.453-.023.814-.049 1.747.498 2.094.28.177.965.026 2.68-2.83.812-1.355 1.42-2.946 1.42-2.946s.135-.284.341-.406c.212-.124.497-.086.497-.086l3.85-.023s1.156-.137 1.343.377c.196.537-.432 1.793-2.005 3.85-1.492 1.953-2.218 2.672-2.15 3.307.048.465.52.885 1.425 1.71 1.89 1.722 2.397 2.629 2.52 2.846l.022.04c.848 1.38-.94 1.489-.94 1.489l-3.42.047s-.734.142-1.7-.51c-.506-.34-1.001-.897-1.473-1.427-.72-.81-1.384-1.559-1.952-1.382-.952.298-.924 2.312-.924 2.312s.008.431-.209.66z" fill="#3E97FF"/></symbol><symbol id="logo" viewBox="0 0 205 40"><path fill-rule="evenodd" clip-rule="evenodd" d="M152 20c0 11.046-8.954 20-20 20s-20-8.954-20-20 8.954-20 20-20 20 8.954 20 20zm-7 0c0 7.18-5.82 13-13 13s-13-5.82-13-13 5.82-13 13-13 13 5.82 13 13z" fill="#181C32"/><path d="M14.24 31H6.688V14.456H.128V8.6H20.8v5.856h-6.56V31zM30.825 22.36v2.944h11.2V31H23.401V8.6H41.61v5.696H30.825v2.624h9.472v5.44h-9.472zM45.573 31h17.664v-5.856H53.125V8.6h-7.552V31zM73.387 22.36v2.944h11.2V31H65.963V8.6H84.17v5.696H73.387v2.624h9.472v5.44h-9.472z" fill="#181C32"/><path fill-rule="evenodd" clip-rule="evenodd" d="M98.918 8.6H88.134V31h7.552v-5.504h3.232c6.24 0 10.208-3.264 10.208-8.448 0-5.184-3.968-8.448-10.208-8.448zm-.48 11.072h-2.752v-5.248h2.752c2.08 0 3.072.992 3.072 2.624 0 1.632-.992 2.624-3.072 2.624zM175.232 31h8.064l-4.704-6.912c2.688-1.376 4.224-3.808 4.224-7.04 0-5.184-3.968-8.448-10.208-8.448h-10.784V31h7.552v-5.632h2.048L175.232 31zm-.032-13.952c0 1.632-.992 2.624-3.072 2.624h-2.752v-5.248h2.752c2.08 0 3.072.992 3.072 2.624z" fill="#181C32"/><path d="M190.859 31h7.552V14.456h6.56V8.6h-20.672v5.856h6.56V31z" fill="#181C32"/><path fill-rule="evenodd" clip-rule="evenodd" d="M139 33c7.18 0 13-5.82 13-13s-5.82-13-13-13-13 5.82-13 13 5.82 13 13 13zm0 7c11.046 0 20-8.954 20-20s-8.954-20-20-20-20 8.954-20 20 8.954 20 20 20z" fill="#3E97FF"/></symbol><view id="icon__arrow_down-view" viewBox="0 0 24 24"/>
<use xlink:href="#icon__arrow_down" style="fill:#181c32" width="24" height="24" x="0" y="0" id="arrow_down"/>

<view id="icon__calendar-view" viewBox="0 24 24 24"/>
<use xlink:href="#icon__calendar" style="fill:#181c32" width="24" height="24" x="0" y="24" id="calendar"/>

<view id="icon__arrow_down_table-view" viewBox="0 48 16 16"/>
<use xlink:href="#icon__arrow_down_table" style="fill:#3e97ff" width="16" height="16" x="0" y="48" id="arrow_down_table"/>
</svg>